<?xml version="1.0" encoding="UTF-8" ?>
<!DOCTYPE svg PUBLIC "-//W3C//DTD SVG 1.1//EN" "http://www.w3.org/Graphics/SVG/1.1/DTD/svg11.dtd">
<svg width="100pt" height="100pt" viewBox="0 0 100 100" version="1.1" xmlns="http://www.w3.org/2000/svg">
<path fill="#dfdfd3" d=" M 27.83 5.61 C 42.13 -1.53 59.90 -1.06 73.70 7.07 C 63.37 12.68 50.82 13.67 39.58 10.44 C 35.49 9.29 31.69 7.34 27.83 5.61 Z" />
<path fill="#f7f6bb" d=" M 21.48 9.42 C 23.46 7.95 25.57 6.63 27.83 5.61 C 31.69 7.34 35.49 9.29 39.58 10.44 C 50.82 13.67 63.37 12.68 73.70 7.07 C 76.15 8.33 78.40 9.96 80.46 11.80 C 62.79 22.83 38.02 22.35 21.48 9.42 Z" />
<path fill="#dfdfd3" d=" M 8.64 22.77 C 12.21 17.70 16.47 13.10 21.48 9.42 C 38.02 22.35 62.79 22.83 80.46 11.80 C 88.69 18.79 94.67 28.43 96.97 39.00 C 99.78 51.29 97.68 64.54 91.36 75.43 C 84.70 71.30 77.34 68.46 69.67 66.84 C 73.63 60.97 77.37 54.26 76.96 46.96 C 76.61 37.29 69.93 28.26 60.80 25.07 C 54.57 22.71 47.64 23.61 41.49 25.78 C 33.12 28.05 26.34 34.74 23.80 43.01 C 19.04 36.05 13.73 29.49 8.64 22.77 Z" />
<path fill="#f4f4ee" d=" M 5.30 28.71 C 6.07 26.56 7.27 24.59 8.64 22.77 C 13.73 29.49 19.04 36.05 23.80 43.01 C 23.48 44.28 23.20 45.55 22.97 46.84 C 22.66 47.86 22.29 48.87 21.86 49.85 C 16.05 43.03 11.32 35.35 5.30 28.71 Z" />
<path fill="#a54242" d=" M 41.49 25.78 C 47.64 23.61 54.57 22.71 60.80 25.07 C 69.93 28.26 76.61 37.29 76.96 46.96 C 77.37 54.26 73.63 60.97 69.67 66.84 C 67.94 69.27 66.08 71.61 64.10 73.85 C 61.06 77.09 58.06 80.59 54.01 82.59 C 52.70 83.12 51.38 83.60 50.03 84.01 C 57.27 76.83 65.08 69.68 69.08 60.05 C 71.92 53.74 71.95 46.24 69.02 39.95 C 65.38 31.81 56.98 25.83 47.99 25.75 C 45.82 25.71 43.66 25.80 41.49 25.78 Z" />
<path fill="#e83636" d=" M 23.80 43.01 C 26.34 34.74 33.12 28.05 41.49 25.78 C 43.66 25.80 45.82 25.71 47.99 25.75 C 47.80 29.21 47.76 32.69 47.76 36.16 C 46.76 36.30 45.78 36.54 44.81 36.79 C 37.48 37.16 32.32 44.99 33.30 51.94 C 33.96 58.65 40.08 64.43 46.92 64.20 C 46.93 70.93 46.57 77.66 46.82 84.40 C 43.45 84.36 41.46 81.20 39.04 79.32 C 37.11 77.51 35.27 75.61 33.54 73.61 C 27.21 66.25 21.59 56.95 22.97 46.84 C 23.20 45.55 23.48 44.28 23.80 43.01 Z" />
<path fill="#eb5454" d=" M 47.99 25.75 C 56.98 25.83 65.38 31.81 69.02 39.95 C 71.95 46.24 71.92 53.74 69.08 60.05 C 65.08 69.68 57.27 76.83 50.03 84.01 C 49.67 84.13 48.94 84.38 48.57 84.50 C 48.13 84.47 47.26 84.42 46.82 84.40 C 46.57 77.66 46.93 70.93 46.92 64.20 C 49.33 63.49 51.98 63.52 54.18 62.16 C 60.83 58.36 62.83 48.71 58.45 42.48 C 56.14 38.78 52.00 36.68 47.76 36.16 C 47.76 32.69 47.80 29.21 47.99 25.75 Z" />
<path fill="#dfdfd3" d=" M 5.30 28.71 C 11.32 35.35 16.05 43.03 21.86 49.85 C 22.29 48.87 22.66 47.86 22.97 46.84 C 21.59 56.95 27.21 66.25 33.54 73.61 C 32.43 74.40 31.33 75.19 30.22 75.97 C 20.96 63.44 11.45 51.10 1.99 38.71 C 2.76 35.27 4.05 31.99 5.30 28.71 Z" />
<path fill="#e4e4da" d=" M 44.81 36.79 C 45.78 36.54 46.76 36.30 47.76 36.16 C 52.00 36.68 56.14 38.78 58.45 42.48 C 62.83 48.71 60.83 58.36 54.18 62.16 C 47.28 63.55 40.42 57.71 39.21 51.05 C 38.04 45.71 40.46 40.01 44.81 36.79 Z" />
<path fill="#952121" d=" M 33.30 51.94 C 32.32 44.99 37.48 37.16 44.81 36.79 C 40.46 40.01 38.04 45.71 39.21 51.05 C 40.42 57.71 47.28 63.55 54.18 62.16 C 51.98 63.52 49.33 63.49 46.92 64.20 C 40.08 64.43 33.96 58.65 33.30 51.94 Z" />
<path fill="#f4f4ee" d=" M 1.99 38.71 C 11.45 51.10 20.96 63.44 30.22 75.97 C 28.72 77.09 27.24 78.23 25.76 79.38 C 17.09 69.28 9.85 58.05 1.27 47.88 C 1.06 49.67 0.90 51.46 0.71 53.25 L 0.00 51.76 L 0.00 47.39 C 0.57 44.47 1.18 41.57 1.99 38.71 Z" />
<path fill="#a54242" d=" M 46.71 42.76 C 49.24 41.93 51.97 40.75 54.66 41.55 C 57.81 42.40 60.03 45.71 59.62 48.95 C 58.59 52.28 55.31 54.15 52.50 55.84 C 53.22 53.20 54.65 50.33 53.45 47.61 C 52.56 45.05 50.03 43.73 47.58 43.07 L 46.71 42.76 Z" />
<path fill="#e83636" d=" M 40.63 47.43 C 41.45 44.79 44.14 43.25 46.71 42.76 L 47.58 43.07 C 47.35 47.85 47.15 52.64 47.13 57.43 C 42.19 57.53 38.49 51.89 40.63 47.43 Z" />
<path fill="#eb5454" d=" M 47.58 43.07 C 50.03 43.73 52.56 45.05 53.45 47.61 C 54.65 50.33 53.22 53.20 52.50 55.84 C 50.85 56.69 49.02 57.53 47.13 57.43 C 47.15 52.64 47.35 47.85 47.58 43.07 Z" />
<path fill="#dfdfd3" d=" M 1.27 47.88 C 9.85 58.05 17.09 69.28 25.76 79.38 C 22.87 81.93 20.24 84.75 17.70 87.65 C 7.77 78.99 1.71 66.36 0.71 53.25 C 0.90 51.46 1.06 49.67 1.27 47.88 Z" />
<path fill="#f7f6bb" d=" M 64.10 73.85 C 66.08 71.61 67.94 69.27 69.67 66.84 C 77.34 68.46 84.70 71.30 91.36 75.43 C 90.21 77.59 88.82 79.61 87.21 81.45 C 80.17 77.27 72.34 74.25 64.10 73.85 Z" />
<path fill="#f7f6bb" d=" M 30.22 75.97 C 31.33 75.19 32.43 74.40 33.54 73.61 C 35.27 75.61 37.11 77.51 39.04 79.32 C 37.59 80.11 36.15 80.92 34.77 81.81 C 33.06 82.90 31.45 84.16 29.95 85.52 C 27.66 87.53 25.62 89.80 23.61 92.09 C 21.47 90.86 19.50 89.34 17.70 87.65 C 20.24 84.75 22.87 81.93 25.76 79.38 C 27.24 78.23 28.72 77.09 30.22 75.97 Z" />
<path fill="#dfdfd3" d=" M 64.10 73.85 C 72.34 74.25 80.17 77.27 87.21 81.45 C 81.41 88.52 73.70 93.89 65.13 97.04 C 61.36 92.27 57.85 87.31 54.01 82.59 C 58.06 80.59 61.06 77.09 64.10 73.85 Z" />
<path fill="#dfdfd3" d=" M 34.77 81.81 C 36.15 80.92 37.59 80.11 39.04 79.32 C 41.46 81.20 43.45 84.36 46.82 84.40 C 47.26 84.42 48.13 84.47 48.57 84.50 C 51.45 89.59 55.55 93.84 58.53 98.87 C 57.57 98.95 55.66 99.10 54.70 99.18 C 52.51 99.14 50.31 99.29 48.14 98.97 C 43.22 93.65 39.38 87.41 34.77 81.81 Z" />
<path fill="#f4f4ee" d=" M 29.95 85.52 C 31.45 84.16 33.06 82.90 34.77 81.81 C 39.38 87.41 43.22 93.65 48.14 98.97 C 50.31 99.29 52.51 99.14 54.70 99.18 L 55.50 100.00 L 44.47 100.00 C 42.48 99.52 40.48 99.07 38.53 98.46 C 38.52 97.40 38.33 96.32 37.64 95.49 C 35.24 92.04 32.55 88.81 29.95 85.52 Z" />
<path fill="#f4f4ee" d=" M 50.03 84.01 C 51.38 83.60 52.70 83.12 54.01 82.59 C 57.85 87.31 61.36 92.27 65.13 97.04 C 63.01 97.91 60.83 98.71 58.53 98.87 C 55.55 93.84 51.45 89.59 48.57 84.50 C 48.94 84.38 49.67 84.13 50.03 84.01 Z" />
<path fill="#dfdfd3" d=" M 23.61 92.09 C 25.62 89.80 27.66 87.53 29.95 85.52 C 32.55 88.81 35.24 92.04 37.64 95.49 C 38.33 96.32 38.52 97.40 38.53 98.46 C 33.33 96.92 28.23 94.96 23.61 92.09 Z" />
</svg>
