<?xml version="1.0" encoding="UTF-8" standalone="no"?>
<svg width="100px" height="100px" viewBox="0 0 100 100" version="1.1" xmlns="http://www.w3.org/2000/svg" xmlns:xlink="http://www.w3.org/1999/xlink" xmlns:sketch="http://www.bohemiancoding.com/sketch/ns">
    <!-- Generator: Sketch 3.1.1 (8761) - http://www.bohemiancoding.com/sketch -->
    <title>smart-map</title>
    <desc>Created with Sketch.</desc>
    <defs>
        <circle id="path-1" cx="50" cy="50" r="50"></circle>
    </defs>
    <g id="Page-1" stroke="none" stroke-width="1" fill="none" fill-rule="evenodd" sketch:type="MSPage">
        <mask id="mask-2" sketch:name="circle" fill="white">
            <use xlink:href="#path-1"></use>
        </mask>
        <use id="circle" fill="#DFDFD3" sketch:type="MSShapeGroup" xlink:href="#path-1"></use>
        <g id="map" sketch:type="MSLayerGroup" mask="url(#mask-2)">
            <g transform="translate(-4.000000, 4.000000)" sketch:type="MSShapeGroup">
                <path d="M-3.55271368e-15,35.6829605 L2.68713284,29 L56.4768581,98.1315432 L49.0635357,98.1315432 L-3.55271368e-15,35.6829605 Z" id="line-2" fill="#F4F4EE"></path>
                <path d="M6,19.9792891 L10.8153087,15 L73.8271255,97.1532745 L66.780262,97.1532745 L6,19.9792891 Z" id="line-1" fill="#F4F4EE"></path>
                <path d="M18.6666369,61 C52.2629013,89.0646477 73.0473595,79.5614872 95.389679,61.8185868 C97.839679,63.0785868 99.2635397,64.3908588 101.32354,66.2308588 C72.7975655,91.6654091 47.0968399,92.0942187 14,66.2308587 C15.98,64.7608587 16.4066369,62.02 18.6666369,61 Z" id="curve-bottom" fill="#F7F6BB" transform="translate(57.661770, 73.233956) rotate(-190.000000) translate(-57.661770, -73.233956) "></path>
                <path d="M31.35,0 C49.2744484,13.3116531 72.1311226,7.00851488 77.22,1.46 C79.67,2.72 81.92,4.35 83.98,6.19 C66.31,17.22 41.54,16.74 25,3.81 C26.98,2.34 29.09,1.02 31.35,0 Z" id="curve-top" fill="#F7F6BB"></path>
            </g>
        </g>
        <g id="pointer" sketch:type="MSLayerGroup" mask="url(#mask-2)">
            <g transform="translate(24.000000, 21.000000)" id="Shape" sketch:type="MSShapeGroup">
                <path d="M18.49,1.78 C24.64,-0.39 31.57,-1.29 37.8,1.07 C46.93,4.26 53.61,13.29 53.96,22.96 C54.37,30.26 50.63,36.97 46.67,42.84 C44.94,45.27 43.08,47.61 41.1,49.85 C38.06,53.09 35.06,56.59 31.01,58.59 C29.7,59.12 28.38,59.6 27.03,60.01 C34.27,52.83 42.08,45.68 46.08,36.05 C48.92,29.74 48.95,22.24 46.02,15.95 C42.38,7.81 33.98,1.83 24.99,1.75 C22.82,1.71 20.66,1.8 18.49,1.78 L18.49,1.78 Z" fill="#A54242"></path>
                <path d="M0.8,19.01 C3.34,10.74 10.12,4.05 18.49,1.78 C20.66,1.8 22.82,1.71 24.99,1.75 C24.8,5.21 24.76,8.69 24.76,12.16 C23.76,12.3 22.78,12.54 21.81,12.79 C14.48,13.16 9.32,20.99 10.3,27.94 C10.96,34.65 17.08,40.43 23.92,40.2 C23.93,46.93 23.57,53.66 23.82,60.4 C20.45,60.36 18.46,57.2 16.04,55.32 C14.11,53.51 12.27,51.61 10.54,49.61 C4.21,42.25 -1.41,32.95 -0.03,22.84 C0.2,21.55 0.48,20.28 0.8,19.01 L0.8,19.01 Z" fill="#E83636"></path>
                <path d="M24.99,1.75 C33.98,1.83 42.38,7.81 46.02,15.95 C48.95,22.24 48.92,29.74 46.08,36.05 C42.08,45.68 34.27,52.83 27.03,60.01 C26.67,60.13 25.94,60.38 25.57,60.5 C25.13,60.47 24.26,60.42 23.82,60.4 C23.57,53.66 23.93,46.93 23.92,40.2 C26.33,39.49 28.98,39.52 31.18,38.16 C37.83,34.36 39.83,24.71 35.45,18.48 C33.14,14.78 29,12.68 24.76,12.16 C24.76,8.69 24.8,5.21 24.99,1.75 L24.99,1.75 Z" fill="#EB5454"></path>
                <path d="M10.3,27.94 C9.32,20.99 14.48,13.16 21.81,12.79 C17.46,16.01 15.04,21.71 16.21,27.05 C17.42,33.71 24.28,39.55 31.18,38.16 C28.98,39.52 26.33,39.49 23.92,40.2 C17.08,40.43 10.96,34.65 10.3,27.94 L10.3,27.94 Z" fill="#952121"></path>
                <path d="M23.71,18.76 C26.24,17.93 28.97,16.75 31.66,17.55 C34.81,18.4 37.03,21.71 36.62,24.95 C35.59,28.28 32.31,30.15 29.5,31.84 C30.22,29.2 31.65,26.33 30.45,23.61 C29.56,21.05 27.03,19.73 24.58,19.07 L23.71,18.76 L23.71,18.76 Z" fill="#A54242"></path>
                <path d="M17.63,23.43 C18.45,20.79 21.14,19.25 23.71,18.76 L24.58,19.07 C24.35,23.85 24.15,28.64 24.13,33.43 C19.19,33.53 15.49,27.89 17.63,23.43 L17.63,23.43 Z" fill="#E83636"></path>
                <path d="M24.58,19.07 C27.03,19.73 29.56,21.05 30.45,23.61 C31.65,26.33 30.22,29.2 29.5,31.84 C27.85,32.69 26.02,33.53 24.13,33.43 C24.15,28.64 24.35,23.85 24.58,19.07 L24.58,19.07 Z" fill="#EB5454"></path>
            </g>
        </g>
    </g>
</svg>